inDegrees=no
num_controls=7
num_derivatives=13
num_iterations=34
num_multipliers=7
num_parameters=0
num_slacks=7
num_states=26
objective=0.426656
objective_accelerations=0.057503
objective_balance=0.001126
objective_effort=0.015424
objective_height=0.346555
objective_ligament=0.006047
solver_duration=483.919632
status=Solve_Succeeded
success=true
DataType=double
version=3
OpenSimVersion=4.5
endheader
time	/jointset/ground_pelvis/pelvis_tilt/value	/jointset/ground_pelvis/pelvis_tx/value	/jointset/ground_pelvis/pelvis_ty/value	/jointset/hip_l/hip_flexion_l/value	/jointset/hip_l/hip_adduction_l/value	/jointset/hip_l/hip_rotation_l/value	/jointset/back/lumbar_extension/value	/jointset/patellofemoral_l/patellar_flexion_l/value	/jointset/knee_l/knee_flexion_l/value	/jointset/knee_l/knee_adduction_l/value	/jointset/knee_l/knee_rotation_l/value	/jointset/ankle_l/ankle_angle_l/value	/jointset/subtalar_l/subtalar_angle_l/value	/jointset/ground_pelvis/pelvis_tilt/speed	/jointset/ground_pelvis/pelvis_tx/speed	/jointset/ground_pelvis/pelvis_ty/speed	/jointset/hip_l/hip_flexion_l/speed	/jointset/hip_l/hip_adduction_l/speed	/jointset/hip_l/hip_rotation_l/speed	/jointset/back/lumbar_extension/speed	/jointset/patellofemoral_l/patellar_flexion_l/speed	/jointset/knee_l/knee_flexion_l/speed	/jointset/knee_l/knee_adduction_l/speed	/jointset/knee_l/knee_rotation_l/speed	/jointset/ankle_l/ankle_angle_l/speed	/jointset/subtalar_l/subtalar_angle_l/speed	/forceset/tau_hip_flexion_l	/forceset/tau_hip_adduction_l	/forceset/tau_hip_rotation_l	/forceset/tau_knee_flexion_l	/forceset/tau_ankle_angle_l	/forceset/tau_subtalar_angle_l	/forceset/tau_lumbar_extension	lambda_cid13_p0	lambda_cid13_p1	lambda_cid13_p2	lambda_cid13_p3	lambda_cid13_p4	lambda_cid13_p5	lambda_cid14_p0	/jointset/ground_pelvis/pelvis_tilt/accel	/jointset/ground_pelvis/pelvis_tx/accel	/jointset/ground_pelvis/pelvis_ty/accel	/jointset/hip_l/hip_flexion_l/accel	/jointset/hip_l/hip_adduction_l/accel	/jointset/hip_l/hip_rotation_l/accel	/jointset/back/lumbar_extension/accel	/jointset/patellofemoral_l/patellar_flexion_l/accel	/jointset/knee_l/knee_flexion_l/accel	/jointset/knee_l/knee_adduction_l/accel	/jointset/knee_l/knee_rotation_l/accel	/jointset/ankle_l/ankle_angle_l/accel	/jointset/subtalar_l/subtalar_angle_l/accel	gamma_cid13_p0	gamma_cid13_p1	gamma_cid13_p2	gamma_cid13_p3	gamma_cid13_p4	gamma_cid13_p5	gamma_cid14_p0
1.5	-0.3443474484340353	0.06072772068994745	0.7924598753038391	0.9929858542890971	-0.3633942640865914	-0.04067118319862525	-0.3266919380269992	0.8153843969073437	0.815384396907439	-0.05193867018976699	-0.1683568403602922	0.2841189406871649	0.151681741332015	0.4813758655045472	0.2644914211224463	0.4847205089762677	-2.282287376650544	-0.003431382923812465	-0.5880815624440064	0.6045204909786888	-2.186762434324903	-2.186762434325148	-0.300641087677652	0.0617607625928404	-0.5583491581483518	-0.2236955246418548	-0.1350359447766585	0.08326022567397753	0.004331477488384992	-0.1205426366799834	-0.04585233969517443	-0.02057878197568513	0.1273409353754282	-40.83269240481557	16.97272737307325	-3.998785267387087	1.650013686094715	-429.6925307203232	-19.59781738803438	-10.32489119023873	0.5689225601753237	0.4632384466221917	-0.7606489255796586	-1.156043342260572	0.3166586901616222	-0.3550123935884162	1.561340492563908	-1.183439211356607	-1.183439211356551	-0.1473644378910178	0.4551877834217127	-0.6550006094805549	0.398397097324089	3.255876286679146e-07	2.062220524818448e-06	-4.343261178026133e-06	7.377631522584693e-08	1.00302054492618e-06	2.326403162323483e-06	6.741893351106163e-07
1.51	-0.3395054701673931	0.06339544400787263	0.7972681201098288	0.9701069992511658	-0.3634140547026003	-0.04657248433767859	-0.3205702115643964	0.7934597921429327	0.7934597921430543	-0.05495291632412126	-0.1677208285102227	0.2785030245817374	0.1494630604596483	0.4869319843347061	0.2690096169644389	0.4768276014356292	-2.293174128714568	-0.0005176403969051427	-0.5920624976119809	0.6197403933009946	-2.197870188752602	-2.197870188752923	-0.3022263523455213	0.0654925306853736	-0.5647461576107263	-0.220003770857215	-0.1308225090486135	0.08169658581276847	0.005405001918622491	-0.117490893123749	-0.04595954026708797	-0.02159911012780296	0.1238201506363507	-40.7431652631799	17.18497605817885	-3.786808935742947	1.91039249155201	-426.640964285561	-19.61696176824444	-11.21808527871484	0.5358109433880329	0.4396930805566148	-0.8186703565795416	-1.008541001102479	0.2797142847463404	-0.4017493348309347	1.489653865873925	-1.031290540729753	-1.031290540741274	-0.1661138745982536	0.3397905535201016	-0.6186688499520434	0.3593858786408872	1.602287070707413e-07	3.992228663635472e-06	-1.893497826159968e-06	4.433657796713322e-07	5.684946667654284e-07	2.554343832661181e-06	5.475159654647004e-07
1.52	-0.3346105598326584	0.06610706586973118	0.8019944241027573	0.9471285667200708	-0.3634045114431864	-0.05251001787967442	-0.3142988183258077	0.7714327404378497	0.7714327404378676	-0.05798341638420466	-0.1670459751327802	0.2728258146346102	0.1472822613970494	0.4919622791229215	0.2732711299091242	0.4683323463640802	-2.302202875283776	0.002435392161619223	-0.5953280430370945	0.6344538461757049	-2.207251822470428	-2.207251822470826	-0.3038918727479099	0.06952906803194174	-0.5706079264865436	-0.2161191626882903	-0.1266090733205189	0.08013294595168227	0.006478526347487202	-0.1144391495674552	-0.04606674083894981	-0.02261943827971595	0.1202993658972931	-40.65191252473168	17.39426400369737	-3.571322894776411	2.155221642261222	-423.5562427946277	-19.67505076088706	-12.1081727760601	0.4637577517866211	0.4119018671608021	-0.8811184317617569	-0.7844422432971686	0.3245166964851049	-0.2119344450162401	1.460050603044778	-0.8382150693820861	-0.8382150693820979	-0.1634155847949197	0.5161416342286925	-0.54795449216901	0.4369679741810812	8.401179398672939e-08	4.975493139157291e-06	-8.00133262658359e-07	6.227654536860662e-07	3.842858105340646e-07	2.727311996690624e-06	4.989375808064632e-07
1.53	-0.3296679171830001	0.06885998897574556	0.8066328595208663	0.9240689885448762	-0.3633654754886468	-0.05847633609166575	-0.3078830781469432	0.7493204886836178	0.7493204886835455	-0.06103163213346818	-0.1663292540111791	0.2670926522132097	0.1451409541552354	0.4964744935336722	0.2772656553123093	0.459262041690672	-2.309393841128669	0.005374768031279728	-0.5978548828971068	0.6485933351938672	-2.214897152953348	-2.21489715295365	-0.3057426532905681	0.07383426592695376	-0.5759284212203869	-0.2121123793613027	-0.1223224340204049	0.07836104811871261	0.007487882997815992	-0.1116952134413222	-0.04594855904826517	-0.0237225462153357	0.1167197850238164	-40.5103958081398	17.6447929171985	-3.37850755506883	2.382409423694582	-420.7112299263493	-19.72494421494201	-12.9942622156667	0.431214217988032	0.3861700695080253	-0.9337888590489857	-0.6385581869160155	0.2788068498634602	-0.260423718754016	1.37576989066152	-0.6825960739972488	-0.6825960739830166	-0.1939236470143937	0.3904150145005088	-0.5094902429521635	0.386400257122096	1.025082649479505e-07	4.952842472427966e-06	-1.147942411794075e-06	6.000884753681292e-07	4.660387901026731e-07	2.841871872767547e-06	5.333351176976337e-07
1.54	-0.3246829002027775	0.07165144577431377	0.8111778314174573	0.9009470738248653	-0.3632970140118779	-0.06446539569471363	-0.301328968710005	0.7271408028172763	0.7271408028171797	-0.06409795855962643	-0.1655689396812232	0.2613092061886804	0.1430404880957243	0.5004371452351744	0.2809778684198867	0.4496396420605462	-2.314670184246791	0.008320496607222481	-0.599876321247534	0.6621276977904164	-2.220738644886279	-2.220738644886486	-0.3075140081537551	0.07824770971649429	-0.5806646471126348	-0.2079509262277337	-0.1180357947203261	0.07658915028571744	0.008497239648639108	-0.1089512773152039	-0.04583037725758676	-0.02482565415099951	0.1131402041503108	-40.36702204898128	17.8929084293522	-3.182921193798284	2.592303354593424	-417.831401649466	-19.82229042400041	-13.87627865481509	0.3538452099368855	0.3554394080393364	-0.9915374231052749	-0.4015176979432118	0.3257872377415179	-0.110854143099247	1.339025318722113	-0.477447359384372	-0.4774473593843746	-0.1475304489006848	0.5377908131344147	-0.4311007238498417	0.4679019354973686	9.616549866107933e-08	5.096634495252203e-06	-1.161252250968232e-06	6.127216822050463e-07	4.794917016072873e-07	2.895879694554681e-06	5.441092938376346e-07
